<svg width="500" height="500" viewBox="0 0 500 500" fill="none" xmlns="http://www.w3.org/2000/svg">
<rect width="500" height="500" fill="#35127C"/>
<path d="M65.0179 107.107H77.3393V119.429H65.0179V107.107ZM77.3393 107.107H89.6607V119.429H77.3393V107.107ZM77.3393 94.7857H89.6607V107.107H77.3393V94.7857ZM89.6607 107.107H101.982V119.429H89.6607V107.107ZM89.6607 119.429H101.982V131.75H89.6607V119.429ZM101.982 119.429H114.304V131.75H101.982V119.429ZM77.3393 119.429H89.6607V131.75H77.3393V119.429ZM65.0179 119.429H77.3393V131.75H65.0179V119.429ZM52.6964 119.429H65.0179V131.75H52.6964V119.429ZM52.6964 131.75H65.0179V144.071H52.6964V131.75ZM40.375 131.75H52.6964V144.071H40.375V131.75ZM65.0179 131.75H77.3393V144.071H65.0179V131.75ZM52.6964 144.071H65.0179V156.393H52.6964V144.071ZM52.6964 156.393H65.0179V168.714H52.6964V156.393ZM52.6964 168.714H65.0179V181.036H52.6964V168.714ZM65.0179 168.714H77.3393V181.036H65.0179V168.714ZM77.3393 168.714H89.6607V181.036H77.3393V168.714ZM89.6607 168.714H101.982V181.036H89.6607V168.714ZM101.982 168.714H114.304V181.036H101.982V168.714ZM114.304 168.714H126.625V181.036H114.304V168.714ZM114.304 156.393H126.625V168.714H114.304V156.393ZM114.304 144.071H126.625V156.393H114.304V144.071ZM114.304 131.75H126.625V144.071H114.304V131.75ZM101.982 131.75H114.304V144.071H101.982V131.75ZM89.6607 131.75H101.982V144.071H89.6607V131.75ZM101.982 144.071H114.304V156.393H101.982V144.071ZM101.982 156.393H114.304V168.714H101.982V156.393ZM101.982 181.036H114.304V193.357H101.982V181.036ZM114.304 181.036H126.625V193.357H114.304V181.036ZM114.304 193.357H126.625V205.679H114.304V193.357ZM114.304 205.679H126.625V218H114.304V205.679ZM101.982 205.679H114.304V218H101.982V205.679ZM101.982 193.357H114.304V205.679H101.982V193.357ZM89.6607 181.036H101.982V193.357H89.6607V181.036ZM77.3393 181.036H89.6607V193.357H77.3393V181.036ZM65.0179 181.036H77.3393V193.357H65.0179V181.036ZM52.6964 181.036H65.0179V193.357H52.6964V181.036ZM52.6964 193.357H65.0179V205.679H52.6964V193.357ZM52.6964 205.679H65.0179V218H52.6964V205.679ZM40.375 205.679H52.6964V218H40.375V205.679ZM40.375 193.357H52.6964V205.679H40.375V193.357ZM40.375 181.036H52.6964V193.357H40.375V181.036ZM40.375 168.714H52.6964V181.036H40.375V168.714ZM40.375 156.393H52.6964V168.714H40.375V156.393ZM40.375 144.071H52.6964V156.393H40.375V144.071ZM138.979 131.75H151.3V144.071H138.979V131.75ZM138.979 119.429H151.3V131.75H138.979V119.429ZM151.3 119.429H163.621V131.75H151.3V119.429ZM151.3 131.75H163.621V144.071H151.3V131.75ZM151.3 144.071H163.621V156.393H151.3V144.071ZM151.3 156.393H163.621V168.714H151.3V156.393ZM151.3 168.714H163.621V181.036H151.3V168.714ZM138.979 168.714H151.3V181.036H138.979V168.714ZM138.979 156.393H151.3V168.714H138.979V156.393ZM138.979 144.071H151.3V156.393H138.979V144.071ZM138.979 181.036H151.3V193.357H138.979V181.036ZM151.3 181.036H163.621V193.357H151.3V181.036ZM151.3 193.357H163.621V205.679H151.3V193.357ZM151.3 205.679H163.621V218H151.3V205.679ZM138.979 205.679H151.3V218H138.979V205.679ZM138.979 193.357H151.3V205.679H138.979V193.357ZM200.586 205.679H212.907V218H200.586V205.679ZM212.907 205.679H225.229V218H212.907V205.679ZM212.907 193.357H225.229V205.679H212.907V193.357ZM212.907 181.036H225.229V193.357H212.907V181.036ZM212.907 168.714H225.229V181.036H212.907V168.714ZM212.907 156.393H225.229V168.714H212.907V156.393ZM212.907 144.071H225.229V156.393H212.907V144.071ZM212.907 131.75H225.229V144.071H212.907V131.75ZM200.586 156.393H212.907V168.714H200.586V156.393ZM200.586 168.714H212.907V181.036H200.586V168.714ZM200.586 181.036H212.907V193.357H200.586V181.036ZM200.586 193.357H212.907V205.679H200.586V193.357ZM200.586 144.071H212.907V156.393H200.586V144.071ZM163.621 131.75H175.943V144.071H163.621V131.75ZM175.943 131.75H188.264V144.071H175.943V131.75ZM188.264 131.75H200.586V144.071H188.264V131.75ZM188.264 119.429H200.586V131.75H188.264V119.429ZM200.586 119.429H212.907V131.75H200.586V119.429ZM200.586 131.75H212.907V144.071H200.586V131.75ZM175.943 119.429H188.264V131.75H175.943V119.429ZM262.225 119.429H274.546V131.75H262.225V119.429ZM249.903 119.429H262.225V131.75H249.903V119.429ZM249.903 131.75H262.225V144.071H249.903V131.75ZM262.225 131.75H274.546V144.071H262.225V131.75ZM274.546 119.429H286.868V131.75H274.546V119.429ZM286.868 119.429H299.189V131.75H286.868V119.429ZM299.189 119.429H311.511V131.75H299.189V119.429ZM299.189 131.75H311.511V144.071H299.189V131.75ZM286.868 131.75H299.189V144.071H286.868V131.75ZM311.511 131.75H323.832V144.071H311.511V131.75ZM311.511 144.071H323.832V156.393H311.511V144.071ZM311.511 193.357H323.832V205.679H311.511V193.357ZM299.189 193.357H311.511V205.679H299.189V193.357ZM299.189 144.071H311.511V156.393H299.189V144.071ZM286.868 193.357H299.189V205.679H286.868V193.357ZM299.189 205.679H311.511V218H299.189V205.679ZM286.868 205.679H299.189V218H286.868V205.679ZM274.546 205.679H286.868V218H274.546V205.679ZM262.225 205.679H274.546V218H262.225V205.679ZM249.903 205.679H262.225V218H249.903V205.679ZM249.903 193.357H262.225V205.679H249.903V193.357ZM262.225 193.357H274.546V205.679H262.225V193.357ZM249.903 181.036H262.225V193.357H249.903V181.036ZM237.582 193.357H249.903V205.679H237.582V193.357ZM237.582 181.036H249.903V193.357H237.582V181.036ZM237.582 168.714H249.903V181.036H237.582V168.714ZM237.582 156.393H249.903V168.714H237.582V156.393ZM237.582 144.071H249.903V156.393H237.582V144.071ZM237.582 131.75H249.903V144.071H237.582V131.75ZM249.903 144.071H262.225V156.393H249.903V144.071ZM249.903 156.393H262.225V168.714H249.903V156.393ZM249.903 168.714H262.225V181.036H249.903V168.714ZM274.546 193.357H286.868V205.679H274.546V193.357ZM274.546 131.75H286.868V144.071H274.546V131.75ZM299.189 156.393H311.511V168.714H299.189V156.393ZM311.511 156.393H323.832V168.714H311.511V156.393ZM262.225 168.714H274.546V181.036H262.225V168.714ZM274.546 168.714H286.868V181.036H274.546V168.714ZM286.868 168.714H299.189V181.036H286.868V168.714ZM299.189 168.714H311.511V181.036H299.189V168.714ZM311.511 168.714H323.832V181.036H311.511V168.714ZM286.868 156.393H299.189V168.714H286.868V156.393ZM274.546 156.393H286.868V168.714H274.546V156.393ZM262.225 156.393H274.546V168.714H262.225V156.393ZM336.186 119.429H348.507V131.75H336.186V119.429ZM336.186 131.75H348.507V144.071H336.186V131.75ZM336.186 144.071H348.507V156.393H336.186V144.071ZM336.186 156.393H348.507V168.714H336.186V156.393ZM336.186 168.714H348.507V181.036H336.186V168.714ZM336.186 181.036H348.507V193.357H336.186V181.036ZM348.507 181.036H360.828V193.357H348.507V181.036ZM348.507 193.357H360.828V205.679H348.507V193.357ZM360.828 193.357H373.15V205.679H360.828V193.357ZM360.828 205.679H373.15V218H360.828V205.679ZM373.15 193.357H385.471V205.679H373.15V193.357ZM385.471 181.036H397.793V193.357H385.471V181.036ZM397.793 144.071H410.114V156.393H397.793V144.071ZM385.471 119.429H397.793V131.75H385.471V119.429ZM397.793 119.429H410.114V131.75H397.793V119.429ZM397.793 131.75H410.114V144.071H397.793V131.75ZM397.793 156.393H410.114V168.714H397.793V156.393ZM397.793 168.714H410.114V181.036H397.793V168.714ZM385.471 168.714H397.793V181.036H385.471V168.714ZM385.471 156.393H397.793V168.714H385.471V156.393ZM385.471 144.071H397.793V156.393H385.471V144.071ZM385.471 131.75H397.793V144.071H385.471V131.75ZM397.793 181.036H410.114V193.357H397.793V181.036ZM422.436 193.357H434.757V205.679H422.436V193.357ZM422.436 205.679H434.757V218H422.436V205.679ZM434.757 193.357H447.078V205.679H434.757V193.357ZM434.757 181.036H447.078V193.357H434.757V181.036ZM447.078 181.036H459.4V193.357H447.078V181.036ZM447.078 168.714H459.4V181.036H447.078V168.714ZM447.078 156.393H459.4V168.714H447.078V156.393ZM447.078 144.071H459.4V156.393H447.078V144.071ZM447.078 131.75H459.4V144.071H447.078V131.75ZM447.078 119.429H459.4V131.75H447.078V119.429ZM348.507 131.75H360.828V144.071H348.507V131.75ZM348.507 144.071H360.828V156.393H348.507V144.071ZM348.507 156.393H360.828V168.714H348.507V156.393ZM348.507 168.714H360.828V181.036H348.507V168.714ZM348.507 119.429H360.828V131.75H348.507V119.429ZM434.757 119.429H447.078V131.75H434.757V119.429ZM434.757 131.75H447.078V144.071H434.757V131.75ZM434.757 144.071H447.078V156.393H434.757V144.071ZM434.757 156.393H447.078V168.714H434.757V156.393ZM434.757 168.714H447.078V181.036H434.757V168.714ZM373.15 205.679H385.471V218H373.15V205.679ZM385.471 193.357H397.793V205.679H385.471V193.357ZM397.793 193.357H410.114V205.679H397.793V193.357ZM410.114 193.357H422.436V205.679H410.114V193.357ZM410.114 205.679H422.436V218H410.114V205.679ZM360.828 181.036H373.15V193.357H360.828V181.036ZM422.436 181.036H434.757V193.357H422.436V181.036Z" fill="white"/>
<rect x="35" y="316" width="66" height="98" rx="5" fill="#F2EFF6"/>
<rect x="35" y="316" width="66" height="98" rx="5" fill="#F2EFF6"/>
<rect x="51.6104" y="312.992" width="11.5792" height="69.3016" transform="rotate(-45 51.6104 312.992)" fill="#35127C"/>
<rect x="137" y="392" width="98" height="36" rx="18" fill="#F2EFF6"/>
<rect x="132" y="414" width="108" height="18" fill="#35127C"/>
<rect x="151" y="316" width="70" height="70" rx="35" fill="#F2EFF6"/>
<rect x="260" y="414" width="108" height="18" fill="#35127C"/>
<rect x="276" y="351" width="76" height="63" fill="#F2EFF6"/>
<path d="M314 316L361.631 352H266.369L314 316Z" fill="#F2EFF6"/>
<rect x="303" y="379" width="23" height="36" fill="#35127C"/>
<rect x="391" y="395" width="76" height="19" rx="5" fill="#F2EFF6"/>
<path d="M391 322C391 319.239 393.239 317 396 317H462C464.761 317 467 319.239 467 322V331C467 333.761 464.761 336 462 336H396C393.239 336 391 333.761 391 331V322Z" fill="#F2EFF6"/>
<rect x="391" y="343" width="76" height="19" rx="5" fill="#F2EFF6"/>
<rect x="391" y="369" width="76" height="19" rx="5" fill="#F2EFF6"/>
</svg>
