<svg width="564" height="564" viewBox="0 0 564 564" fill="none" xmlns="http://www.w3.org/2000/svg">
<rect width="563.2" height="563.2" fill="#202020"/>
<g clip-path="url(#clip0_303_87)">
<path d="M325 34C325.956 34.1557 326.913 34.3113 327.898 34.4717C370.822 41.6869 410.154 60.8774 444 88C444.581 88.4655 445.162 88.931 445.761 89.4106C459.757 100.752 473.192 113.564 484 128C484.473 128.624 484.946 129.248 485.434 129.891C503.574 153.904 518.214 180.181 527.339 208.938C527.906 210.706 528.515 212.46 529.133 214.211C533.065 225.76 534.947 238.002 537 250C537.181 251.005 537.362 252.01 537.549 253.045C538.656 262.748 538.309 272.611 538.35 282.369C538.363 285.124 538.391 287.878 538.432 290.632C539.149 339.37 525.483 383.037 501 425C500.34 425 499.68 425 499 425C499 425.99 499 426.98 499 428C498.34 428 497.68 428 497 428C497 428.99 497 429.98 497 431C496.34 431 495.68 431 495 431C495 431.99 495 432.98 495 434C494.34 434 493.68 434 493 434C493 434.99 493 435.98 493 437C492.34 437 491.68 437 491 437C490.67 438.32 490.34 439.64 490 441C489.34 441 488.68 441 488 441C487.34 442.65 486.68 444.3 486 446C485.34 446 484.68 446 484 446C483.67 447.32 483.34 448.64 483 450C482.34 450 481.68 450 481 450C480.66 451.083 480.66 451.083 480.312 452.188C478.731 455.577 476.701 457.425 474 460C473.175 460.99 472.35 461.98 471.5 463C468.43 466.684 465.294 469.997 461.5 472.938C458.844 474.999 458.844 474.999 456.5 478C454.173 480.792 451.966 482.916 449 485C448.34 485 447.68 485 447 485C447 485.66 447 486.32 447 487C445.35 487.66 443.7 488.32 442 489C442 489.66 442 490.32 442 491C440.35 491.66 438.7 492.32 437 493C437 493.66 437 494.32 437 495C435.45 496.262 435.45 496.262 433.258 497.688C432.448 498.216 431.638 498.745 430.804 499.29C429.92 499.854 429.036 500.419 428.125 501C427.22 501.582 426.314 502.163 425.382 502.762C408.426 513.546 390.767 522.79 372 530C371.235 530.303 370.47 530.606 369.682 530.919C363.576 533.18 357.357 534.417 351.187 531.812C347.455 528.72 344.824 525.829 344 521C343.902 518.324 343.856 515.673 343.858 512.997C343.853 511.791 343.853 511.791 343.848 510.561C343.84 508.815 343.835 507.07 343.831 505.324C343.824 502.547 343.808 499.77 343.79 496.993C343.738 489.097 343.69 481.2 343.674 473.303C343.664 468.468 343.634 463.633 343.593 458.798C343.581 456.969 343.575 455.14 343.578 453.311C343.594 435.102 341.537 417.309 328.355 403.594C327 402 327 402 327 400C327.608 399.9 328.215 399.8 328.842 399.696C362.107 394.169 399.943 386.648 421.207 357.335C427.201 348.481 431.453 339.052 435 329C435.379 327.933 435.758 326.865 436.148 325.766C445.999 295.992 447.396 259.806 434 231C430.491 224.087 426.371 217.849 421.48 211.84C417.969 207.476 417.969 207.476 418.187 204.125C418.58 201.816 419.109 199.613 419.742 197.355C424.909 178.189 422.213 158.269 415 140C393.141 138.105 370.364 150.611 352.973 162.703C347.891 166.044 347.891 166.044 344.941 165.898C343.764 165.639 343.764 165.639 342.562 165.375C341.585 165.176 340.608 164.978 339.602 164.773C337.686 164.362 335.77 163.95 333.854 163.536C314.611 159.433 294.704 157.056 275 158C273.665 158.062 273.665 158.062 272.302 158.125C257.648 158.861 243.571 160.747 229.238 163.879C228.326 164.072 227.414 164.265 226.474 164.464C224.392 164.915 222.321 165.417 220.254 165.93C215.647 166.029 213.29 164.167 209.625 161.562C201.432 156.115 193.052 151.833 184 148C183.232 147.673 182.465 147.347 181.674 147.01C170.504 142.348 160.083 139.758 148 139C147.82 139.832 147.82 139.832 147.637 140.681C146.805 144.49 145.944 148.278 144.93 152.043C140.671 168.375 140.177 184.594 145.223 200.785C146.02 204.084 146.108 205.821 145 209C143.374 210.707 141.709 212.377 140 214C139.67 214.99 139.34 215.98 139 217C138.34 217 137.68 217 137 217C137 217.99 137 218.98 137 220C136.34 220 135.68 220 135 220C134.74 220.674 134.479 221.348 134.211 222.043C133.065 224.841 131.809 227.573 130.538 230.316C116.545 260.921 117.748 298.573 129 330C133.305 341.373 138.431 353.546 147.234 362.195C149 364 149 364 149 366C149.593 366.267 150.186 366.534 150.797 366.809C153.038 368.021 154.446 369.279 156.25 371.062C174.944 387.741 201.096 393.74 225 398C227.271 398.416 229.542 398.833 231.812 399.25C233.208 399.501 234.604 399.752 236 400C235.265 403.334 234.301 405.423 232 408C231.34 408 230.68 408 230 408C230 408.99 230 409.98 230 411C229.34 411 228.68 411 228 411C224.138 422.175 224.138 422.175 221.281 433.629C220 437 220 437 217.41 438.707C201.031 444.116 182.939 446.97 167 439C155.463 432.608 148.304 423.29 141.266 412.461C134.244 401.676 124.489 394.619 112 391C106.187 389.829 101.543 389.52 96 392C98.2431 397.549 101.37 400.21 106.312 403.438C111.827 407.077 116.133 410.618 120 416C120.693 416.96 121.387 417.921 122.102 418.91C126.795 425.697 130.269 432.665 133.5 440.25C139.489 454.011 147.043 461.628 160.944 467.234C178.059 473.612 199.127 472.183 216.995 470.112C217.987 470.057 217.987 470.057 219 470C220.641 471.641 220.144 473.529 220.161 475.792C220.171 476.813 220.18 477.835 220.19 478.888C220.197 480.558 220.197 480.558 220.203 482.262C220.209 483.4 220.214 484.539 220.22 485.712C220.23 488.129 220.236 490.546 220.24 492.963C220.25 496.654 220.281 500.346 220.312 504.037C220.319 506.383 220.324 508.729 220.328 511.074C220.34 512.178 220.353 513.281 220.365 514.418C220.349 519.989 220.3 524.265 217 529C211.66 533.058 207.586 533.624 201 533C198.012 532.322 195.224 531.308 192.375 530.188C191.57 529.88 190.765 529.572 189.936 529.255C167.254 520.353 146.302 508.821 127 494C125.768 493.07 124.536 492.141 123.305 491.211C116.798 486.25 110.83 481.131 105.184 475.191C102.921 472.92 100.504 470.998 98 469C96.9427 467.909 95.9202 466.783 94.9375 465.625C92.7477 463.051 90.5518 460.488 88.3046 457.965C80.4862 449.116 73.6023 439.783 67 430C66.3541 429.046 65.7083 428.092 65.0429 427.109C47.8198 400.811 35.2377 371.176 29.4248 340.23C29.0356 338.187 28.6194 336.149 28.2004 334.112C25.5165 320.127 25.5046 306.101 25.5539 291.914C25.5631 289.145 25.5562 286.377 25.5334 283.608C25.3923 266.364 26.2391 249.882 30 233C30.3692 231.246 30.3692 231.246 30.7458 229.457C31.3339 226.805 31.9823 224.185 32.6875 221.562C32.9338 220.636 33.1802 219.71 33.434 218.756C38.1272 201.762 44.6778 185.522 53 170C53.5388 168.934 54.0776 167.868 54.6328 166.77C62.1278 152.196 71.7255 138.733 82 126C82.803 124.992 83.6061 123.984 84.4335 122.945C95.4286 109.401 107.992 96.4319 122 86C122.649 85.5123 123.298 85.0245 123.967 84.522C133.956 77.0434 144.088 70.0588 155 64C155.826 63.5374 156.651 63.0748 157.502 62.5981C171.863 54.6207 186.442 48.2607 202 43C202.754 42.7414 203.508 42.4828 204.285 42.2163C217.512 37.757 231.259 35.2975 245 33C245.806 32.8643 246.611 32.7287 247.441 32.5889C272.545 28.6033 300.043 29.7748 325 34Z" fill="#00EEFF"/>
</g>
<defs>
<clipPath id="clip0_303_87">
<rect width="512" height="512" fill="white" transform="translate(26 26)"/>
</clipPath>
</defs>
</svg>
