<svg width="150" height="150" viewBox="0 0 150 150" fill="none" xmlns="http://www.w3.org/2000/svg">
<rect x="16" y="15" width="128" height="128" rx="30" fill="#303030"/>
<rect x="11" y="11" width="128" height="128" rx="30" fill="#202020"/>
<path d="M72.2383 65.043C72.2383 70.5801 70.5098 74.6963 67.0527 77.3916C63.5957 80.0869 58.7471 81.4346 52.5068 81.4346H39.543V106H33.5225V48.6514H52.4189C58.7178 48.6514 63.5957 50.0283 67.0527 52.7822C70.5098 55.5068 72.2383 59.5938 72.2383 65.043ZM66.2178 65.043C66.2178 61.0879 64.9727 58.2314 62.4824 56.4736C59.9922 54.6865 56.667 53.793 52.5068 53.793H39.543V76.293H52.5068C56.667 76.293 59.9922 75.4141 62.4824 73.6562C64.9727 71.8691 66.2178 68.998 66.2178 65.043ZM119.304 106H82.6533V48.6514H119.304V53.793H88.6738V74.3154H111.262V79.457H88.6738V100.858H119.304V106Z" fill="#00E6FF"/>
<path d="M69.7383 63.043C69.7383 68.5801 68.0098 72.6963 64.5527 75.3916C61.0957 78.0869 56.2471 79.4346 50.0068 79.4346H37.043V104H31.0225V46.6514H49.9189C56.2178 46.6514 61.0957 48.0283 64.5527 50.7822C68.0098 53.5068 69.7383 57.5938 69.7383 63.043ZM63.7178 63.043C63.7178 59.0879 62.4727 56.2314 59.9824 54.4736C57.4922 52.6865 54.167 51.793 50.0068 51.793H37.043V74.293H50.0068C54.167 74.293 57.4922 73.4141 59.9824 71.6562C62.4727 69.8691 63.7178 66.998 63.7178 63.043ZM116.804 104H80.1533V46.6514H116.804V51.793H86.1738V72.3154H108.762V77.457H86.1738V98.8584H116.804V104Z" fill="white"/>
</svg>
