<svg width="128" height="128" viewBox="0 0 128 128" fill="none" xmlns="http://www.w3.org/2000/svg">
<rect width="128" height="128" rx="30" fill="#202020"/>
<path d="M61.2383 54.043C61.2383 59.5801 59.5098 63.6963 56.0527 66.3916C52.5957 69.0869 47.7471 70.4346 41.5068 70.4346H28.543V95H22.5225V37.6514H41.4189C47.7178 37.6514 52.5957 39.0283 56.0527 41.7822C59.5098 44.5068 61.2383 48.5938 61.2383 54.043ZM55.2178 54.043C55.2178 50.0879 53.9727 47.2314 51.4824 45.4736C48.9922 43.6865 45.667 42.793 41.5068 42.793H28.543V65.293H41.5068C45.667 65.293 48.9922 64.4141 51.4824 62.6562C53.9727 60.8691 55.2178 57.998 55.2178 54.043ZM108.304 95H71.6533V37.6514H108.304V42.793H77.6738V63.3154H100.262V68.457H77.6738V89.8584H108.304V95Z" fill="#00E6FF"/>
<path d="M58.7383 52.043C58.7383 57.5801 57.0098 61.6963 53.5527 64.3916C50.0957 67.0869 45.2471 68.4346 39.0068 68.4346H26.043V93H20.0225V35.6514H38.9189C45.2178 35.6514 50.0957 37.0283 53.5527 39.7822C57.0098 42.5068 58.7383 46.5938 58.7383 52.043ZM52.7178 52.043C52.7178 48.0879 51.4727 45.2314 48.9824 43.4736C46.4922 41.6865 43.167 40.793 39.0068 40.793H26.043V63.293H39.0068C43.167 63.293 46.4922 62.4141 48.9824 60.6562C51.4727 58.8691 52.7178 55.998 52.7178 52.043ZM105.804 93H69.1533V35.6514H105.804V40.793H75.1738V61.3154H97.7617V66.457H75.1738V87.8584H105.804V93Z" fill="white"/>
</svg>
